# xmcd
#
# Track frame offsets: 
#        150
#        13287
#        26165
#        40090
#        53570
#        65922
#        78140
#        91985
#        105465
#        118710
#        132205
#        145362
#        158335
#        171055
#        183357
#        196240
#
# Disc length: 2784 seconds
#
# Revision: 0
# Processed by: cddbd v1.5.1PL0 Copyright (c) Steve Scherf et al.
# Submitted via: ExactAudioCopy v0.95a5
#
DISCID=ce0ade10
DTITLE=Ivory Joe Hunter - Sixteen Greatest Hits
DYEAR=1900
DGENRE=
TTITLE0=Jealous Heart
TTITLE1=I Quit My Pretty Mama
TTITLE2=Waiting In Vain
TTITLE3=No Money, No Luck Blues
TTITLE4=Too Late
TTITLE5=I Have No Reason To Complain
TTITLE6=I Like It
TTITLE7=Lying Woman
TTITLE8=Guess Who
TTITLE9=In Time
TTITLE10=The Code Song
TTITLE11=Don't Fall In Love With Me
TTITLE12=It's You Just You
TTITLE13=Please Don't Cry Anymore
TTITLE14=False Friend Blues
TTITLE15=Changing Blues
EXTD=
EXTT0=
EXTT1=
EXTT2=
EXTT3=
EXTT4=
EXTT5=
EXTT6=
EXTT7=
EXTT8=
EXTT9=
EXTT10=
EXTT11=
EXTT12=
EXTT13=
EXTT14=
EXTT15=
PLAYORDER=
